<?xml version="1.0" encoding="utf-8"?>
<!-- Generator: Adobe Illustrator 23.0.4, SVG Export Plug-In . SVG Version: 6.00 Build 0)  -->
<svg version="1.1" id="Layer_2" xmlns="http://www.w3.org/2000/svg" xmlns:xlink="http://www.w3.org/1999/xlink" x="0px" y="0px"
	 viewBox="0 0 150 150" style="enable-background:new 0 0 150 150;" xml:space="preserve">
<style type="text/css">
	.st0{fill:#262626;stroke:#FFFFFF;stroke-width:2.5042;stroke-miterlimit:10;}
</style>
<g>
	<path class="st0" d="M75,92.71c24.48,0,44.39-19.92,44.39-44.39c0-24.48-19.92-44.4-44.39-44.4c-24.48,0-44.4,19.92-44.4,44.4
		C30.61,72.8,50.52,92.71,75,92.71z M53.2,79.09c0.22-7.31,4.08-13.86,10.29-17.62c3.32,2.16,7.27,3.43,11.52,3.43
		c4.24,0,8.19-1.27,11.51-3.43c6.21,3.76,10.06,10.31,10.29,17.63c-6.17,4.38-13.68,6.98-21.8,6.98
		C66.88,86.08,59.37,83.47,53.2,79.09z M75,58.26c-8.07,0-14.63-6.59-14.63-14.7s6.56-14.7,14.63-14.7c8.06,0,14.62,6.59,14.62,14.7
		S83.06,58.26,75,58.26z M75,10.56c20.82,0,37.75,16.94,37.75,37.76c0,9.82-3.8,18.75-9.97,25.47c-1.47-6.85-5.4-12.9-11.17-16.96
		c2.9-3.65,4.64-8.26,4.64-13.28c0-11.77-9.54-21.34-21.26-21.34c-11.73,0-21.27,9.57-21.27,21.34c0,5.02,1.75,9.63,4.65,13.28
		c-5.77,4.06-9.7,10.11-11.17,16.96c-6.17-6.72-9.97-15.65-9.97-25.47C37.24,27.51,54.18,10.57,75,10.56z"/>
	<path class="st0" d="M80.18,106.15H36.26c-1.83,0-3.32,1.49-3.32,3.32c0,1.83,1.49,3.32,3.32,3.32h43.91
		c1.83,0,3.32-1.49,3.32-3.32C83.5,107.63,82.01,106.15,80.18,106.15z"/>
	<polygon class="st0" points="96.51,104.85 90.32,99.13 85.82,104 96.72,114.08 116.1,94.45 111.38,89.78 	"/>
	<path class="st0" d="M80.18,138.14H36.26c-1.83,0-3.32,1.49-3.32,3.32c0,1.83,1.49,3.32,3.32,3.32h43.91
		c1.83,0,3.32-1.49,3.32-3.32C83.5,139.62,82.01,138.14,80.18,138.14z"/>
	<polygon class="st0" points="96.51,136.84 90.32,131.12 85.82,136 96.72,146.07 116.1,126.44 111.38,121.77 	"/>
</g>
</svg>
