<?xml version="1.0" encoding="utf-8"?>
<!-- Generator: Adobe Illustrator 23.0.4, SVG Export Plug-In . SVG Version: 6.00 Build 0)  -->
<svg version="1.1" id="Icons" xmlns="http://www.w3.org/2000/svg" xmlns:xlink="http://www.w3.org/1999/xlink" x="0px" y="0px"
	 viewBox="0 0 150 150" style="enable-background:new 0 0 150 150;" xml:space="preserve">
<style type="text/css">
	.st0{fill:none;stroke:#011520;stroke-width:4.8785;stroke-linejoin:round;stroke-miterlimit:10;}
	.st1{fill:none;stroke:#011520;stroke-width:4.8785;stroke-linecap:round;stroke-linejoin:round;stroke-miterlimit:10;}
</style>
<g>
	<path class="st0" d="M94.33,34.76c0,17.14-13.9,31.05-31.05,31.05c-17.14,0-31.04-13.91-31.04-31.05S46.14,3.7,63.28,3.7
		C80.43,3.7,94.33,17.61,94.33,34.76z"/>
	<path class="st0" d="M135.68,106.99c1.55,3.48,2.42,7.33,2.42,11.39c0,15.42-12.5,27.92-27.93,27.92
		c-15.42,0-27.92-12.5-27.92-27.92c0-15.42,12.5-27.92,27.92-27.92c6.44,0,12.36,2.18,17.09,5.83"/>
	<polyline class="st1" points="96.11,114.12 110.27,127.5 138.94,92.53 	"/>
	<path class="st0" d="M107.79,90.44c-5.86-6.96-14.68-11.89-25.18-14.56L63.29,93L43.96,75.87c-19.26,4.9-32.9,17.43-32.9,36.08
		v22.04h75.95"/>
</g>
</svg>
