<?xml version="1.0" encoding="utf-8"?>
<!-- Generator: Adobe Illustrator 23.0.4, SVG Export Plug-In . SVG Version: 6.00 Build 0)  -->
<svg version="1.1" xmlns="http://www.w3.org/2000/svg" xmlns:xlink="http://www.w3.org/1999/xlink" x="0px" y="0px"
	 viewBox="0 0 150 150" style="enable-background:new 0 0 150 150;" xml:space="preserve">
<g id="background">
</g>
<g id="icons">
	<g>
		<g>
			<polygon points="141.42,108.37 137.98,108.37 137.98,60.17 62.25,60.17 62.25,94.6 58.8,94.6 58.8,56.73 141.42,56.73 			"/>
		</g>
		<g>
			<path d="M148.3,60.17H51.92V44.68h96.38V60.17z M55.36,56.73h89.5v-8.61h-89.5V56.73z"/>
		</g>
		<g>
			<polygon points="107,103.2 103.55,103.2 103.55,60.17 96.67,60.17 96.67,99.76 93.23,99.76 93.23,56.73 107,56.73 			"/>
		</g>
		<rect x="30.62" y="125.82" transform="matrix(0.9881 -0.1535 0.1535 0.9881 -19.3205 6.6199)" width="5.15" height="5.15"/>
		<g>
			<path d="M45.31,140.38l-6.97-41.53l11.11-1.93l6.97,41.53L45.31,140.38z M42.3,101.65l5.83,34.74l4.32-0.75l-5.83-34.74
				L42.3,101.65z"/>
		</g>
		<g>
			<polygon points="32.44,145 31.91,141.6 45.14,139.54 38.36,98.7 2.22,104.32 1.7,100.92 41.19,94.78 49.1,142.41 			"/>
		</g>
		<g>
			<path d="M100.83,140.85c-3.33,0-8.16-0.67-15.88-2.41c-11.88-2.69-17.03-3.56-22.03-3.74c-1.44-0.05-2.99,0.01-4.6,0.17
				l-0.35-3.43c1.77-0.18,3.48-0.24,5.07-0.18c5.25,0.19,10.55,1.08,22.67,3.82c13.13,2.97,17.02,2.56,19.27,1.68
				c0.53-0.21,2.67-1.36,5.14-2.7c4.68-2.53,11.76-6.34,17.93-9.19c1.77-0.81,3.56-1.57,5.3-2.3c3.25-1.37,8.17-3.43,8.6-4.54
				c0.18-0.5,0.17-0.94-0.04-1.37c-0.32-0.67-1.13-1.3-2.11-1.64c-6.93-2.41-13.12,0.02-19.67,2.59
				c-6.47,2.54-13.16,5.17-20.27,2.38l1.26-3.2c5.85,2.3,11.64,0.03,17.76-2.38c6.85-2.69,13.92-5.47,22.06-2.64
				c1.87,0.65,3.36,1.89,4.09,3.41c0.6,1.26,0.66,2.65,0.18,4.01c-0.86,2.4-4.37,3.98-10.51,6.55c-1.71,0.72-3.47,1.46-5.19,2.25
				c-6.07,2.8-13.09,6.58-17.74,9.09c-3.24,1.75-4.82,2.6-5.52,2.87C104.85,140.51,103.23,140.85,100.83,140.85z"/>
		</g>
		<g>
			<path d="M102.58,120.47c-0.61,0-1.22-0.07-1.82-0.22l-23.98-5.85l0.82-3.34l23.98,5.85c1.09,0.27,2.22,0.09,3.17-0.5
				c0.96-0.59,1.63-1.51,1.88-2.6c0.51-2.17-0.75-4.33-2.87-4.96c-1.07-0.17-9.03-1.5-14.35-3.79c-1.38-0.6-2.74-1.32-4.18-2.08
				c-4.26-2.26-9.09-4.81-16.25-4.81c-7.15,0-13.62,3.87-16.07,5.53l-1.93-2.85c3.37-2.29,10.19-6.13,18.01-6.13
				c8.02,0,13.48,2.89,17.86,5.21c1.37,0.73,2.67,1.42,3.93,1.96c5.19,2.23,13.55,3.56,13.63,3.57l0.19,0.04
				c3.96,1.1,6.33,5.09,5.39,9.1c-0.47,1.99-1.69,3.68-3.43,4.75C105.33,120.08,103.97,120.47,102.58,120.47z"/>
		</g>
		<g>
			<rect x="69.21" y="9.98" transform="matrix(0.9019 -0.432 0.432 0.9019 1.2989 31.9265)" width="3.44" height="6.25"/>
		</g>
		<g>
			<rect x="93.8" y="6.53" transform="matrix(0.0771 -0.997 0.997 0.0771 81.2197 104.2416)" width="6.25" height="3.44"/>
		</g>
		<g>
			<rect x="49.13" y="27.18" transform="matrix(0.5652 -0.825 0.825 0.5652 -2.889 55.1287)" width="3.44" height="6.25"/>
		</g>
		<g>
			<rect x="120.26" y="11.38" transform="matrix(0.4321 -0.9018 0.9018 0.4321 58.2534 118.7156)" width="6.25" height="3.44"/>
		</g>
		<g>
			<rect x="140.34" y="28.58" transform="matrix(0.8251 -0.5649 0.5649 0.8251 7.9655 86.3451)" width="6.25" height="3.44"/>
		</g>
		<g>
			<path d="M108.7,47.69l-0.25-3.43c3.96-0.28,10.58-0.76,12.65-2.6c1.69-1.5,2.7-3.57,2.83-5.83c0.13-2.26-0.62-4.44-2.12-6.13
				c-3.1-3.49-8.47-3.81-11.96-0.71c-0.59,0.52-1.76,2.01-3.01,6.12l-3.29-1c1.16-3.8,2.47-6.32,4.02-7.69
				c2.38-2.11,5.44-3.17,8.62-2.98c3.18,0.19,6.09,1.6,8.2,3.98c2.11,2.38,3.17,5.44,2.98,8.62c-0.19,3.18-1.6,6.09-3.98,8.2
				C120.67,46.65,115.13,47.23,108.7,47.69z"/>
		</g>
		<g>
			<path d="M93.05,47.7l-1.4-0.02c-5.03-0.08-11.93-0.18-15.13-2.91c-4.96-4.22-5.56-11.7-1.33-16.66
				c4.22-4.96,11.7-5.56,16.66-1.33c1.69,1.44,3.14,4.21,4.44,8.48l-3.29,1c-1.42-4.68-2.73-6.31-3.38-6.86
				c-1.7-1.45-3.87-2.15-6.1-1.97c-2.23,0.18-4.25,1.21-5.71,2.92c-2.99,3.51-2.57,8.81,0.95,11.8c2.26,1.92,8.95,2.03,12.95,2.09
				l1.42,0.02L93.05,47.7z"/>
		</g>
		<g>
			<path d="M108.72,48.13H91.51v-4.72c0-4.04,3.29-7.33,7.33-7.33h2.55c4.04,0,7.33,3.29,7.33,7.33V48.13z M94.95,44.68h10.33v-1.27
				c0-2.14-1.74-3.89-3.89-3.89h-2.55c-2.14,0-3.89,1.74-3.89,3.89V44.68z"/>
		</g>
		<g>
			<rect x="84.62" y="45.54" width="3.44" height="12.91"/>
		</g>
		<g>
			<rect x="112.16" y="45.54" width="3.44" height="12.91"/>
		</g>
	</g>
</g>
<g id="Header">
</g>
</svg>
