<?xml version="1.0" encoding="utf-8"?>
<!-- Generator: Adobe Illustrator 23.0.4, SVG Export Plug-In . SVG Version: 6.00 Build 0)  -->
<svg version="1.1" xmlns="http://www.w3.org/2000/svg" xmlns:xlink="http://www.w3.org/1999/xlink" x="0px" y="0px"
	 viewBox="0 0 150 150" style="enable-background:new 0 0 150 150;" xml:space="preserve">
<style type="text/css">
	.st0{fill:#231F20;}
</style>
<g id="background">
</g>
<g id="icons">
	<g>
		<g>
			<path class="st0" d="M75,131.43c-1.21,0-2.42-0.44-3.37-1.33l-4.89-4.6c-0.34-0.32-0.83-0.4-1.25-0.22l-6.17,2.65
				c-2.38,1.02-5.16,0.01-6.33-2.3l-3.02-5.99c-0.21-0.41-0.66-0.68-1.1-0.64l-6.7,0.38c-2.59,0.11-4.85-1.76-5.16-4.33l-0.79-6.66
				c-0.05-0.46-0.38-0.84-0.82-0.98l-6.43-1.94c-2.48-0.75-3.96-3.31-3.37-5.83l1.53-6.53c0.11-0.45-0.06-0.92-0.43-1.2l-5.38-4.02
				c-2.08-1.55-2.59-4.47-1.17-6.63l3.68-5.61c0.25-0.39,0.25-0.89,0-1.27l-3.68-5.62c-1.42-2.17-0.91-5.08,1.17-6.63l5.38-4.02
				c0.37-0.28,0.54-0.75,0.43-1.2l-1.53-6.53c-0.59-2.52,0.89-5.09,3.37-5.83l6.43-1.94c0.44-0.13,0.76-0.52,0.82-0.98L37,34.95
				c0.31-2.57,2.56-4.49,5.16-4.33l6.7,0.38c0.48,0.04,0.89-0.22,1.1-0.64l3.02-5.99c1.17-2.32,3.95-3.33,6.33-2.3l6.17,2.65
				c0.43,0.18,0.92,0.1,1.26-0.22l4.89-4.6c1.89-1.78,4.85-1.78,6.74,0l4.89,4.6c0.34,0.31,0.83,0.4,1.25,0.22l6.17-2.65
				c2.38-1.02,5.16-0.01,6.33,2.3l3.02,5.99c0.21,0.41,0.63,0.68,1.1,0.64l6.7-0.38c2.58-0.15,4.85,1.75,5.16,4.33l0.79,6.66
				c0.05,0.46,0.38,0.84,0.82,0.98l6.43,1.94c2.48,0.75,3.96,3.31,3.37,5.83l-1.53,6.53c-0.11,0.45,0.07,0.92,0.44,1.2l5.38,4.02
				c2.08,1.55,2.59,4.46,1.17,6.63l-3.68,5.62c-0.25,0.39-0.25,0.89,0,1.27l3.68,5.61c1.42,2.17,0.91,5.08-1.17,6.63l-5.38,4.02
				c-0.37,0.28-0.54,0.75-0.44,1.2l1.53,6.53c0.59,2.52-0.89,5.08-3.37,5.83l-6.43,1.94c-0.44,0.13-0.76,0.52-0.82,0.98l-0.79,6.67
				c-0.31,2.57-2.54,4.44-5.16,4.33l-6.7-0.38c-0.47-0.04-0.89,0.22-1.1,0.64l-3.02,5.99c-1.17,2.31-3.95,3.33-6.33,2.3l-6.17-2.65
				c-0.42-0.18-0.92-0.1-1.26,0.22l-4.89,4.6C77.42,130.99,76.21,131.43,75,131.43z M65.94,121.44c1.23,0,2.44,0.46,3.37,1.33
				l4.89,4.6c0.45,0.42,1.15,0.42,1.59,0l4.89-4.6c1.42-1.34,3.51-1.71,5.31-0.94l6.17,2.65c0.56,0.24,1.22,0,1.5-0.54l3.02-5.99
				c0.88-1.75,2.72-2.79,4.67-2.69l6.7,0.38c0.64,0.06,1.15-0.42,1.22-1.02l0.79-6.67c0.23-1.94,1.59-3.56,3.46-4.13l6.43-1.94
				c0.59-0.18,0.94-0.78,0.79-1.38l-1.53-6.53c-0.45-1.91,0.28-3.89,1.84-5.06l5.38-4.02c0.49-0.37,0.61-1.06,0.28-1.57l-3.68-5.61
				c-1.07-1.64-1.07-3.75,0-5.39l3.68-5.62c0.33-0.51,0.21-1.2-0.28-1.57l-5.38-4.02c-1.57-1.17-2.29-3.16-1.84-5.06l1.53-6.53
				c0.14-0.6-0.21-1.2-0.79-1.38l-6.43-1.94c-1.87-0.57-3.23-2.18-3.46-4.13l-0.79-6.66c-0.07-0.61-0.62-1.08-1.22-1.02l-6.7,0.38
				c-1.95,0.1-3.78-0.95-4.67-2.69l-3.02-5.99c-0.28-0.55-0.93-0.79-1.5-0.55l-6.17,2.65c-1.8,0.77-3.88,0.41-5.31-0.94l-4.89-4.6
				c-0.45-0.42-1.15-0.42-1.59,0l-4.89,4.6c-1.43,1.34-3.51,1.71-5.31,0.94l-6.17-2.65c-0.56-0.24-1.22,0-1.5,0.54l-3.02,5.99
				c-0.88,1.75-2.73,2.79-4.67,2.69l-6.7-0.38c-0.59-0.04-1.15,0.41-1.22,1.02l-0.79,6.67c-0.23,1.94-1.59,3.56-3.46,4.13
				l-6.43,1.94c-0.59,0.18-0.94,0.78-0.8,1.38l1.53,6.53c0.45,1.9-0.28,3.89-1.84,5.06l-5.38,4.02c-0.49,0.37-0.61,1.06-0.28,1.57
				l3.68,5.62c1.07,1.64,1.07,3.75,0,5.39l-3.68,5.61c-0.34,0.51-0.21,1.2,0.28,1.57l5.38,4.02c1.57,1.17,2.29,3.16,1.84,5.06
				l-1.53,6.53c-0.14,0.6,0.21,1.2,0.8,1.38l6.43,1.94c1.87,0.56,3.23,2.18,3.46,4.13l0.79,6.67c0.07,0.61,0.6,1.08,1.22,1.02
				l6.7-0.38c1.95-0.1,3.78,0.95,4.67,2.69l3.02,5.99c0.28,0.55,0.94,0.78,1.5,0.54l6.17-2.65
				C64.63,121.57,65.29,121.44,65.94,121.44z"/>
		</g>
		<g>
			<path class="st0" d="M75,144.61c-1.39,0-2.78-0.51-3.87-1.53l-6.07-5.71c-0.55-0.52-1.35-0.66-2.05-0.36l-7.66,3.29
				c-2.74,1.18-5.93,0.01-7.27-2.65l-3.75-7.44c-0.34-0.67-1.04-1.08-1.8-1.04l-8.32,0.47c-2.96,0.17-5.58-2.02-5.93-4.98
				l-0.98-8.27c-0.09-0.75-0.61-1.37-1.34-1.59l-7.98-2.41c-2.85-0.86-4.55-3.8-3.87-6.7l1.91-8.11c0.17-0.73-0.11-1.5-0.71-1.95
				l-6.67-4.99c-2.39-1.78-2.98-5.13-1.34-7.62l4.57-6.97c0.41-0.63,0.41-1.45,0-2.08l-4.57-6.97c-1.63-2.49-1.04-5.84,1.34-7.62
				l6.67-4.99c0.6-0.45,0.88-1.22,0.71-1.95l-1.91-8.11c-0.68-2.9,1.02-5.84,3.87-6.7l7.98-2.41c0.72-0.22,1.25-0.84,1.33-1.59
				l0.98-8.28c0.35-2.96,2.94-5.13,5.93-4.98l8.32,0.47c0.75,0.04,1.46-0.36,1.8-1.04l3.75-7.44c1.34-2.66,4.54-3.82,7.27-2.65
				l7.66,3.29c0.69,0.3,1.5,0.15,2.05-0.36l6.07-5.71c2.17-2.04,5.57-2.04,7.74,0l0,0l6.07,5.71c0.55,0.52,1.35,0.65,2.05,0.36
				l7.66-3.29c2.74-1.18,5.93-0.01,7.27,2.65l3.75,7.44c0.34,0.67,1.04,1.08,1.8,1.04l8.32-0.47c2.99-0.14,5.58,2.02,5.93,4.98
				l0.98,8.27c0.09,0.75,0.61,1.37,1.33,1.59l7.98,2.41c2.85,0.86,4.55,3.81,3.87,6.7l-1.91,8.11c-0.17,0.74,0.11,1.5,0.71,1.95
				l6.67,4.99c2.39,1.78,2.98,5.13,1.34,7.62l-4.57,6.97c-0.41,0.63-0.41,1.45,0,2.08l4.56,6.97c1.63,2.49,1.04,5.84-1.35,7.62
				l-6.67,4.99c-0.6,0.45-0.88,1.22-0.71,1.95l1.91,8.11c0.68,2.9-1.02,5.84-3.87,6.7l-7.98,2.41c-0.72,0.22-1.25,0.84-1.33,1.59
				l-0.98,8.28c-0.35,2.96-2.92,5.14-5.93,4.98l-8.32-0.47c-0.76-0.04-1.46,0.37-1.8,1.04l-3.75,7.44
				c-1.34,2.66-4.53,3.82-7.27,2.65l-7.66-3.29c-0.69-0.3-1.5-0.15-2.05,0.36l-6.07,5.71C77.79,144.1,76.39,144.61,75,144.61z
				 M63.76,133.1c1.41,0,2.8,0.53,3.87,1.53l6.07,5.71c0.73,0.69,1.87,0.68,2.6,0l6.07-5.71c1.64-1.54,4.03-1.96,6.1-1.08l7.66,3.29
				c0.92,0.39,1.99,0,2.44-0.89l3.75-7.44c1.01-2.01,3.13-3.2,5.36-3.1l8.32,0.47c1,0.05,1.87-0.68,1.99-1.67l0.98-8.28
				c0.26-2.23,1.83-4.09,3.98-4.74l7.98-2.41c0.96-0.29,1.53-1.28,1.3-2.25l-1.91-8.11c-0.51-2.19,0.32-4.47,2.12-5.82l6.67-4.99
				c0.8-0.6,1-1.72,0.45-2.56l-4.57-6.97c-1.23-1.88-1.23-4.31,0-6.19l4.57-6.97c0.55-0.84,0.35-1.96-0.45-2.56l-6.67-4.99
				c-1.8-1.35-2.63-3.63-2.12-5.82l1.91-8.11c0.23-0.97-0.34-1.96-1.3-2.25l-7.98-2.41c-2.15-0.65-3.72-2.51-3.98-4.74l-0.98-8.27
				c-0.12-0.99-0.99-1.72-1.99-1.67l-8.32,0.47c-2.24,0.11-4.35-1.09-5.36-3.1l-3.75-7.44c-0.45-0.89-1.52-1.28-2.44-0.89
				l-7.66,3.29c-2.07,0.89-4.46,0.46-6.1-1.08L76.3,9.66c-0.73-0.68-1.87-0.68-2.6,0l-6.07,5.71c-1.64,1.54-4.03,1.96-6.1,1.08
				l-7.66-3.29c-0.92-0.39-1.99,0-2.44,0.89l-3.76,7.44c-1.01,2.01-3.14,3.21-5.36,3.1L34,24.11c-0.98-0.05-1.87,0.68-1.99,1.67
				l-0.98,8.27c-0.26,2.23-1.83,4.09-3.98,4.74l-7.98,2.41c-0.96,0.29-1.53,1.28-1.3,2.25l1.91,8.11c0.51,2.19-0.32,4.47-2.12,5.82
				l-6.67,4.99c-0.8,0.6-1,1.72-0.45,2.56l4.57,6.97c1.23,1.88,1.23,4.31,0,6.19l-4.57,6.97c-0.55,0.84-0.35,1.96,0.45,2.56
				l6.67,4.99c1.8,1.35,2.63,3.63,2.12,5.82l-1.91,8.11c-0.23,0.97,0.34,1.96,1.3,2.25l7.98,2.41c2.15,0.65,3.72,2.51,3.98,4.74
				l0.98,8.27c0.12,0.99,1.01,1.72,1.99,1.67l8.32-0.47c2.22-0.12,4.35,1.09,5.36,3.1l3.75,7.44c0.45,0.89,1.52,1.28,2.44,0.89
				l7.66-3.29C62.25,133.25,63.01,133.1,63.76,133.1z"/>
		</g>
		<g>
			<path class="st0" d="M35.86,86.36V63.71h16.3v4.12H40.14v6.19h11.37v3.95H40.14v8.39H35.86z"/>
			<path class="st0" d="M75.24,86.36h-5.09l-6.61-7.58h-4.12v7.58h-4.28V63.64c3.6,0,7.19,0.03,10.79,0.03
				c5.35,0.03,8.17,3.6,8.17,7.52c0,3.11-1.43,6.26-5.74,7.13l6.87,7.74V86.36z M59.43,67.66v7.26h6.51c2.72,0,3.89-1.82,3.89-3.63
				c0-1.82-1.2-3.63-3.89-3.63H59.43z"/>
			<path class="st0" d="M93.91,86.36H76.93c0-7.55,0-15.13,0-22.68h16.98v4.15H81.18v5.22h12.28v3.99H81.18v5.12h12.73V86.36z"/>
			<path class="st0" d="M114.14,86.36H97.16c0-7.55,0-15.13,0-22.68h16.98v4.15h-12.73v5.22h12.28v3.99h-12.28v5.12h12.73V86.36z"/>
		</g>
		<g>
			<rect x="55.6" y="47.56" class="st0" width="5.03" height="3.76"/>
		</g>
		<g>
			<rect x="64.99" y="47.56" class="st0" width="5.03" height="3.76"/>
		</g>
		<g>
			<rect x="74.38" y="47.56" class="st0" width="5.03" height="3.76"/>
		</g>
		<g>
			<rect x="83.77" y="47.56" class="st0" width="5.03" height="3.76"/>
		</g>
		<g>
			<rect x="93.16" y="47.56" class="st0" width="5.03" height="3.76"/>
		</g>
		<g>
			<rect x="55.6" y="100.13" class="st0" width="5.03" height="3.76"/>
		</g>
		<g>
			<rect x="64.99" y="100.13" class="st0" width="5.03" height="3.76"/>
		</g>
		<g>
			<rect x="74.38" y="100.13" class="st0" width="5.03" height="3.76"/>
		</g>
		<g>
			<rect x="83.77" y="100.13" class="st0" width="5.03" height="3.76"/>
		</g>
		<g>
			<rect x="93.16" y="100.13" class="st0" width="5.03" height="3.76"/>
		</g>
	</g>
</g>
<g id="Header">
</g>
</svg>
