<?xml version="1.0" encoding="utf-8"?>
<!-- Generator: Adobe Illustrator 23.0.4, SVG Export Plug-In . SVG Version: 6.00 Build 0)  -->
<svg version="1.1" id="Icons" xmlns="http://www.w3.org/2000/svg" xmlns:xlink="http://www.w3.org/1999/xlink" x="0px" y="0px"
	 viewBox="0 0 150 150" style="enable-background:new 0 0 150 150;" xml:space="preserve">
<style type="text/css">
	.st0{fill:none;stroke:#011520;stroke-width:1.5551;stroke-linecap:round;stroke-linejoin:round;stroke-miterlimit:10;}
	.st1{fill:none;stroke:#011520;stroke-width:1.5551;stroke-linejoin:round;stroke-miterlimit:10;}
</style>
<g>
	<path class="st0" d="M33.9,43.12c-3.96,27.36-10.52,52.37-21.24,80.55l101.04,24.03c12.12-31.53,20.41-65.64,23.64-99.44
		L94.37,38.03"/>
	<line class="st0" x1="82.11" y1="52.59" x2="89.91" y2="60.39"/>
	<path class="st0" d="M32.14,100.15c0.83,0.3,2.54,0.78,3.49,1c3.95,0.94,7.93,0.07,9.5-6.59l5.21-22.53"/>
	<path class="st1" d="M83.1,113.06c-0.78,0-1.63-0.11-2.54-0.32l-7.34-1.74l7.55-31.86l7,1.66c2.47,0.59,4.07,1.53,4.9,2.88
		c0.8,1.32,0.92,3.12,0.36,5.5l-0.29,1.21c-0.75,3.15-2.05,4.76-4.23,5.21l-2.47,0.51l2.08,1.44c2.04,1.42,2.62,3.67,1.81,7.08
		l-0.65,2.76C88.37,111.21,86.35,113.06,83.1,113.06L83.1,113.06z"/>
	<path class="st0" d="M95.19,110.89c0,0-0.71,5.89,4.91,6.82c4.89,0.81,7.12-2.04,7.88-5.27c0.95-4.06-1.38-7.38-3.27-10.17
		c-2.04-3-3.76-5.79-2.97-10.08c0.49-2.66,2.63-5.76,7.14-4.98c2.3,0.4,5.1,1.82,4.35,6.62"/>
	<path class="st1" d="M66.7,101.02c-1.07,4.45-5.07,7.31-8.93,6.38l0,0c-3.86-0.93-6.12-5.29-5.04-9.75l3.89-16.12
		c1.07-4.45,5.07-7.31,8.93-6.38l0,0c3.86,0.93,6.12,5.29,5.04,9.75L66.7,101.02z"/>
	<path class="st0" d="M83.67,22.93l-1.43-1.43c-3.48-3.49-9.17-2.73-11.87-1.97c-0.8,0.23-1.6,0.48-2.41,0.79l-5.87-5.87
		c0.77-3.74,0.07-6.74-1.78-8.59c-0.36-0.36-1.16-1.17-1.43-1.44c-1.41-1.4-3.42-2.12-5.82-2.12c-1.19,0-2.48,0.18-3.83,0.53
		c-8.45,2.22-17.06,10.9-19.3,19.3c-1.1,4.18-0.42,7.51,1.6,9.52c0.48,0.5,0.9,0.91,1.41,1.42c1.37,1.37,3.35,2.13,5.8,2.13
		c0.88,0,1.84-0.1,2.83-0.31l5.88,5.89c-0.32,0.83-0.6,1.66-0.83,2.5c-1.36,5.16-0.51,9.25,1.97,11.73c0.6,0.6,0.77,0.78,1.39,1.4
		c2.07,2.07,6.07,3.55,11.88,1.97c10.37-2.82,21.01-13.4,23.74-23.74C86.98,29.51,86.14,25.42,83.67,22.93z"/>
	<path class="st0" d="M77.33,29.93c-2.23,8.47-10.57,16.9-19.31,19.29"/>
	<path class="st0" d="M55.17,12.46c-2.02,6.7-9.01,13.33-15.92,14.86"/>
</g>
</svg>
