<?xml version="1.0" encoding="utf-8"?>
<!-- Generator: Adobe Illustrator 23.0.4, SVG Export Plug-In . SVG Version: 6.00 Build 0)  -->
<svg version="1.1" id="Icons" xmlns="http://www.w3.org/2000/svg" xmlns:xlink="http://www.w3.org/1999/xlink" x="0px" y="0px"
	 viewBox="0 0 150 150" style="enable-background:new 0 0 150 150;" xml:space="preserve">
<style type="text/css">
	.st0{fill:none;stroke:#011520;stroke-width:1.1975;stroke-linejoin:round;stroke-miterlimit:10;}
	.st1{fill:none;stroke:#011520;stroke-width:1.1975;stroke-miterlimit:10;}
</style>
<g>
	<path class="st0" d="M46.15,59.04c9.79,0,17.72-7.93,17.72-17.72c0-9.79-7.93-17.72-17.72-17.72c-9.79,0-17.73,7.93-17.73,17.72
		C28.42,51.1,36.36,59.04,46.15,59.04z"/>
	<path class="st0" d="M76.79,81.75c-1.83-7.6-7.33-14.53-21.39-15.05l-9.26,7.17l-9.26-7.17c-18.91,0.7-22.3,12.65-22.3,22.57"/>
	<line class="st1" x1="69.22" y1="96.22" x2="4.88" y2="96.22"/>
	<path class="st1" d="M74.82,101.74v-3.24c0-9.34,6.78-18.68,25.03-18.68h15.99c17.96,0,24.85,8.7,24.85,18.64v3.27"/>
	<path class="st1" d="M107.75,70.74c10.39,0,18.81-8.42,18.81-18.8c0-10.39-8.42-18.81-18.81-18.81c-10.38,0-18.81,8.42-18.81,18.81
		C88.94,62.32,97.37,70.74,107.75,70.74z"/>
	<path class="st0" d="M70.39,126.41v-16.98c0-4.89,3.96-8.86,8.86-8.86h57.01c4.89,0,8.86,3.97,8.86,8.86v16.98"/>
</g>
</svg>
