<?xml version="1.0" encoding="utf-8"?>
<!-- Generator: Adobe Illustrator 23.0.4, SVG Export Plug-In . SVG Version: 6.00 Build 0)  -->
<svg version="1.1" id="Icons" xmlns="http://www.w3.org/2000/svg" xmlns:xlink="http://www.w3.org/1999/xlink" x="0px" y="0px"
	 viewBox="0 0 150 150" style="enable-background:new 0 0 150 150;" xml:space="preserve">
<style type="text/css">
	.st0{fill:none;stroke:#011520;stroke-width:1.2258;stroke-linecap:round;stroke-linejoin:round;stroke-miterlimit:10;}
	.st1{fill:none;stroke:#011520;stroke-width:1.2258;stroke-linejoin:round;stroke-miterlimit:10;}
</style>
<g>
	<path class="st0" d="M100.62,4.88c-0.68-0.54-1.68-0.43-2.22,0.26L81.26,26.79c-0.54,0.68-0.43,1.67,0.25,2.22l31.29,24.89
		c0.68,0.55,1.68,0.44,2.22-0.25l17.14-21.65c0.54-0.69,0.42-1.68-0.26-2.22L100.62,4.88z"/>
	<path class="st1" d="M47.16,102.23l-22.74,16.56c0,0-3.1,2.81-0.28,7.19c2.93,4.57,6.83,3.06,6.83,3.06l26.87-15.39"/>
	<path class="st1" d="M20.82,32.57c-2.64,1.09-3.79,5.15-3.16,8.34c3.67,20.95,17.51,32.86,20.51,35.84
		c1.35,5.35,3.49,13.9,4.43,17.37c1,3.68,1.24,4.12,2.86,6.12c3.47,4.29,14.08,15.15,14.08,15.15l-11.01,22.43
		c0,0-1.64,4.19,2.9,6.7c2.96,1.63,6.47,1.02,7.6-0.85l16.86-27.9c0.79-1.21,0.85-3.23,0.13-4.48L64.54,90.1l-2.76-11.23
		c0,0,18.41-4.72,30.43-21.98c1.97-2.59,2.89-7.4,0.45-9.74c-2.43-2.34-6.43-2.06-8.67,0.27C69.62,62.39,60.02,64.19,51.6,62.48
		c-16.46-3.35-20.57-18.11-23.34-26.49C27.37,33.27,25.12,30.8,20.82,32.57z"/>
	<path class="st1" d="M43.39,39.74c-1.18,6.89,3.45,13.44,10.35,14.62c6.9,1.19,13.45-3.43,14.63-10.33
		c1.18-6.9-3.44-13.45-10.34-14.64C51.13,28.21,44.58,32.84,43.39,39.74z"/>
</g>
</svg>
