<?xml version="1.0" encoding="utf-8"?>
<!-- Generator: Adobe Illustrator 23.0.4, SVG Export Plug-In . SVG Version: 6.00 Build 0)  -->
<svg version="1.1" id="Globe_Line_Symbols" xmlns="http://www.w3.org/2000/svg" xmlns:xlink="http://www.w3.org/1999/xlink" x="0px"
	 y="0px" viewBox="0 0 800 800" style="enable-background:new 0 0 800 800;" xml:space="preserve">
<style type="text/css">
	.st0{fill:none;stroke:#242430;stroke-width:18.1899;stroke-miterlimit:10;}
	.st1{fill:none;stroke:#FFC80A;stroke-width:22.7374;stroke-miterlimit:10;}
</style>
<g id="World_Map">
	<path class="st0" d="M677.55,403.6l-82.61-0.86c-3.75-0.04-7.33,1.54-9.82,4.33c-2.49,2.8-3.66,6.53-3.2,10.25l7.58,61.15
		c1.3,10.45,8.53,19.22,18.54,22.48c2.9,0.94,5.17,3.22,6.11,6.12c0.93,2.9,0.42,6.08-1.38,8.54l-33.46,45.64
		c-3.16,4.31-5.9,8.91-8.2,13.73l-31.76,66.71c-1.74,3.65-5.13,6.25-9.1,6.97l-31.52,5.75c-5.78,1.05-11.51-2.03-13.82-7.43
		l-17.5-40.92c-2.17-5.07-3.36-10.51-3.51-16.02l-1.67-60.2c-0.05-1.85-0.85-3.61-2.21-4.87c-1.36-1.26-3.18-1.91-5.03-1.81
		l-66.77,3.65c-5.71,0.31-11.22-2.15-14.79-6.62l-21.32-26.64c-3.98-4.97-4.98-11.69-2.62-17.61l25.86-64.92
		c2.34-5.86,7.62-10.04,13.86-10.96L457.35,390c2.78-0.41,5.61,0.28,7.89,1.94L499,416.44c3.55,2.58,8.32,2.74,12.03,0.4
		l19.18-12.04c2.24-1.41,3.88-3.59,4.62-6.14l13.43-46.73c0.39-1.35,0.34-2.78-0.13-4.1l-8.39-23.66c-0.67-1.89-2.16-3.39-4.05-4.07
		c-1.89-0.69-3.99-0.49-5.72,0.54l-20.12,11.92c-1.75,1.04-3.88,1.23-5.78,0.51c-1.91-0.71-3.39-2.25-4.03-4.18l-6.82-20.55
		c-0.79-2.39-2.85-4.14-5.34-4.52L470,301.01c-2.31-0.36-4.67,0.03-6.73,1.13l-29.89,15.94c-2.55,1.36-4.45,3.69-5.26,6.47
		L423,342.13c-1.34,4.59-5.54,7.74-10.32,7.74h-48.61c-3.13,0-6.11-1.37-8.15-3.74c-2.04-2.38-2.95-5.53-2.47-8.62l5.78-38
		c0.6-3.97,3.37-7.27,7.17-8.57l40.55-13.78c3.38-1.15,5.96-3.9,6.91-7.34c0.94-3.44,0.12-7.13-2.21-9.84l-9.5-11.09
		c-2.26-2.64-3.11-6.21-2.27-9.58c0.83-3.37,3.25-6.14,6.48-7.42l30.09-11.91l41.04-30.05c5.75-4.2,13.09-5.58,19.96-3.74
		l41.94,11.24c4.85,1.3,9.88,1.74,14.88,1.3l52.92-4.6c8.87-0.78,17.29-4.28,24.09-10.03L677.55,145"/>
	<path class="st0" d="M342.71,130.28l6.23,43.84c0.45,2.21,0.14,4.49-0.79,6.53l-13.98,29.71c-1.37,2.89-3.93,4.97-6.99,5.77
		c-3.05,0.76-6.32,0.09-8.86-1.83l-20.23-15.13c-2.1-1.56-3.53-3.87-4.02-6.43c0,0-15.9-81.61-11.34-58.48"/>
	<path class="st0" d="M61.15,124.12l83.3,81.16c2.57,2.51,6.33,3.4,9.75,2.3l53.71-17.15c2.09-0.67,4.34-0.61,6.39,0.16l30.91,11.65
		c3.79,1.43,6.3,5.06,6.3,9.11v38.05c0,4.22-2.77,7.95-6.81,9.21l-45.85,14.03c-1.95,0.59-3.67,1.81-4.89,3.44l-27.48,41.6
		c-1.48,1.99-2.12,4.51-1.84,6.94l7.51,37.89c0.91,4.57-1.23,9.19-5.29,11.47c-4.06,2.27-9.12,1.67-12.54-1.49l-27.74-25.62
		c-1.72-2.87-4.83-4.62-8.18-4.62l-17.5-0.07c-2.54,0-5,1.01-6.81,2.82c-1.8,1.81-2.83,4.25-2.83,6.81l-0.05,25.02
		c0,2.01,0.66,4.03,1.88,5.66l25.04,30.33c0.7,0.93,1.54,1.74,2.54,2.37l23.08,16.24c2.39,1.54,5.31,1.94,8.03,1.13l41.79-5.96
		c2.89-0.87,6.01-0.34,8.47,1.45l33.49,31.4c0.65,0.43,1.36,0.86,2.12,1.14l54.81,23.68c4.85,1.89,7.24,7.28,5.53,12.15
		l-24.24,115.22c-0.25,0.74-0.6,1.44-1.01,2.09l-46.38,62.56c-1.78,2.78-4.92,4.41-8.24,4.35c-3.32-0.08-6.36-1.89-8.03-4.74
		l-23.37-48.16c-0.79-1.34-1.24-2.84-1.34-4.42l-6.51-51.45c-0.14-2.59-1.31-5.01-3.23-6.73l-63.64-42.33
		c-2.97-1.97-4.9-5.18-5.25-8.74l-4.48-45.49c-0.29-2.96-1.68-5.7-3.89-7.69L55.97,422.9c-1.94-1.74-3.56-3.82-4.79-6.12
		l-21.51-40.39"/>
	<path class="st1" d="M770.35,675.84V124.12c0-32.66-26.47-59.12-59.12-59.12c-4.87,0-21.32,3.29-31.33,9.02
		c-1.45,0.83-2.34,2.37-2.34,4.04v541.53c0,1.55,0.78,3.01,2.07,3.87c1.29,0.86,2.93,1.02,4.37,0.43
		c10.94-4.56,26.63-7.16,27.24-7.16C743.87,616.71,770.35,643.18,770.35,675.84c0,32.66-26.47,59.16-59.12,59.16H34.3
		c-2.57,0-4.65-2.08-4.65-4.65V128.77c0-2.57,2.08-4.65,4.65-4.65h643.24"/>
</g>
</svg>
