<?xml version="1.0" encoding="utf-8"?>
<!-- Generator: Adobe Illustrator 23.0.4, SVG Export Plug-In . SVG Version: 6.00 Build 0)  -->
<svg version="1.1" id="Õ_xBA__x2264__x201E__x5F_1"
	 xmlns="http://www.w3.org/2000/svg" xmlns:xlink="http://www.w3.org/1999/xlink" x="0px" y="0px" viewBox="0 0 566.93 566.93"
	 style="enable-background:new 0 0 566.93 566.93;" xml:space="preserve">
<style type="text/css">
	.st0{fill:none;stroke:#FFFFFF;stroke-miterlimit:10;}
	.st1{fill:#1D1E1C;}
	.st2{fill:#FFC80A;}
</style>
<rect class="st0" width="566.93" height="566.93"/>
<g>
	<path class="st1" d="M304.6,450H90.4c-2.65,0-4.79-2.15-4.79-4.79V71.26c0-2.65,2.15-4.79,4.79-4.79h310.02
		c2.65,0,4.79,2.15,4.79,4.79v252.49c0,2.65-2.15,4.79-4.79,4.79c-2.65,0-4.79-2.15-4.79-4.79V76.05H95.2v364.36h209.4
		c2.65,0,4.79,2.15,4.79,4.79C309.39,447.85,307.25,450,304.6,450z"/>
	<g>
		<g>
			<path class="st1" d="M167.79,337.75h-23.88c-2.65,0-4.79-2.15-4.79-4.79c0-2.65,2.15-4.79,4.79-4.79h23.88
				c2.65,0,4.79,2.15,4.79,4.79C172.59,335.61,170.44,337.75,167.79,337.75z"/>
			<path class="st1" d="M346.91,337.75H209.59c-2.65,0-4.79-2.15-4.79-4.79c0-2.65,2.15-4.79,4.79-4.79h137.32
				c2.65,0,4.79,2.15,4.79,4.79C351.71,335.61,349.56,337.75,346.91,337.75z"/>
		</g>
		<g>
			<path class="st1" d="M167.79,391.49h-23.88c-2.65,0-4.79-2.15-4.79-4.79c0-2.65,2.15-4.79,4.79-4.79h23.88
				c2.65,0,4.79,2.15,4.79,4.79C172.59,389.34,170.44,391.49,167.79,391.49z"/>
			<path class="st1" d="M298.21,391.49h-88.62c-2.65,0-4.79-2.15-4.79-4.79c0-2.65,2.15-4.79,4.79-4.79h88.62
				c2.65,0,4.79,2.15,4.79,4.79C303,389.34,300.86,391.49,298.21,391.49z"/>
		</g>
	</g>
	<g>
		<g>
			<path class="st1" d="M201.19,293.05c-2.65,0-4.79-2.15-4.79-4.79v-26.39c0-2.65,2.15-4.79,4.79-4.79c2.65,0,4.79,2.15,4.79,4.79
				v26.39C205.98,290.91,203.84,293.05,201.19,293.05z"/>
			<path class="st1" d="M173.53,293.05c-2.65,0-4.79-2.15-4.79-4.79v-52.44c0-21.29,20.02-26.92,30.61-26.92h21.21
				c-0.16-0.02,3.27-0.62,3.29-2.07c0.04-2.65,2.11-4.72,4.87-4.72c2.65,0.04,4.76,2.23,4.72,4.87
				c-0.12,7.04-6.49,10.89-12.36,11.48l-21.72,0.02c-2.14,0.01-21.02,0.61-21.02,17.33v52.44
				C178.33,290.91,176.18,293.05,173.53,293.05z"/>
			<path class="st1" d="M289.65,291.26c-2.65,0-4.79-2.15-4.79-4.79v-24.14c0-2.65,2.15-4.79,4.79-4.79c2.65,0,4.79,2.15,4.79,4.79
				v24.14C294.44,289.11,292.29,291.26,289.65,291.26z"/>
			<path class="st1" d="M317.29,292.15c-2.65,0-4.79-2.15-4.79-4.79v-51.54c0-16.72-18.87-17.32-21.02-17.33h-21.23
				c-0.58,0.03-4.59,0.02-7.76-3.02c-1.51-1.45-3.32-4.11-3.35-8.53c-0.02-2.65,2.12-4.81,4.76-4.83c0.01,0,0.02,0,0.03,0
				c2.63,0,4.78,2.13,4.79,4.76c0.01,1.52,0.35,1.99,1.46,2.02h21.3c10.58,0,30.6,5.62,30.6,26.92v51.54
				C322.09,290.01,319.94,292.15,317.29,292.15z"/>
		</g>
		<path class="st1" d="M245.41,195.9c-22.6,0-40.99-20.56-40.99-45.84c0-25.27,18.39-45.83,40.99-45.83c22.61,0,41,20.56,41,45.83
			C286.42,175.34,268.02,195.9,245.41,195.9z M245.41,113.82c-17.32,0-31.41,16.26-31.41,36.24c0,19.99,14.09,36.25,31.41,36.25
			c17.32,0,31.42-16.26,31.42-36.25C276.83,130.08,262.74,113.82,245.41,113.82z"/>
	</g>
	<g>
		<path class="st2" d="M400.5,500.47c-10.12,0-20.25-1.93-29.94-5.79c-41.38-16.49-61.63-63.58-45.14-104.97l0,0
			c16.49-41.38,63.58-61.64,104.97-45.14c20.05,7.99,35.78,23.31,44.31,43.14c8.52,19.83,8.82,41.78,0.83,61.83
			c-7.99,20.05-23.31,35.78-43.14,44.31C422.15,498.26,411.33,500.47,400.5,500.47z M334.34,393.26
			c-14.54,36.48,3.31,77.98,39.78,92.51c17.67,7.05,37.03,6.79,54.5-0.73c17.48-7.52,30.98-21.38,38.02-39.05
			c7.04-17.67,6.79-37.02-0.73-54.5c-7.51-17.47-21.38-30.97-39.05-38.02C390.39,338.96,348.87,356.79,334.34,393.26L334.34,393.26z
			"/>
		<path class="st2" d="M400.49,480.2c-7.58,0-15.17-1.45-22.42-4.34c-31-12.36-46.17-47.64-33.82-78.64l0,0
			c12.36-31,47.63-46.17,78.64-33.82c15.02,5.99,26.81,17.47,33.2,32.32c6.39,14.86,6.6,31.31,0.62,46.33
			c-5.98,15.02-17.46,26.81-32.32,33.2C416.71,478.54,408.61,480.2,400.49,480.2z M353.16,400.77c-10.4,26.1,2.37,55.79,28.46,66.19
			c12.64,5.03,26.48,4.85,38.99-0.52c12.5-5.38,22.16-15.3,27.2-27.94c5.04-12.64,4.86-26.49-0.52-38.99
			c-5.38-12.5-15.3-22.16-27.94-27.2C393.25,361.91,363.56,374.67,353.16,400.77L353.16,400.77z"/>
		<g>
			<path class="st2" d="M400.48,449.99c-2.65,0-4.79-2.15-4.79-4.79v-51.14c0-2.65,2.15-4.79,4.79-4.79c2.65,0,4.79,2.15,4.79,4.79
				v51.14C405.28,447.84,403.13,449.99,400.48,449.99z"/>
			<path class="st2" d="M426.05,424.42h-51.14c-2.65,0-4.79-2.15-4.79-4.79c0-2.65,2.15-4.79,4.79-4.79h51.14
				c2.65,0,4.79,2.15,4.79,4.79C430.85,422.28,428.7,424.42,426.05,424.42z"/>
		</g>
	</g>
</g>
</svg>
