<?xml version="1.0" encoding="utf-8"?>
<!-- Generator: Adobe Illustrator 23.0.4, SVG Export Plug-In . SVG Version: 6.00 Build 0)  -->
<svg version="1.1" xmlns="http://www.w3.org/2000/svg" xmlns:xlink="http://www.w3.org/1999/xlink" x="0px" y="0px"
	 viewBox="0 0 1445.67 1445.67" style="enable-background:new 0 0 1445.67 1445.67;" xml:space="preserve">
<style type="text/css">
	.st0{fill:#FBC62C;}
</style>
<g id="UNDER_18_ICONS_SET_BY_RedKoala">
	<g id="_x31_8_x2B_">
		<path id="stroke" class="st0" d="M722.83,75.57c-357.47,0-647.26,289.79-647.26,647.26c0,357.47,289.79,647.26,647.26,647.26
			c357.48,0,647.27-289.79,647.27-647.26C1370.1,365.36,1080.31,75.57,722.83,75.57z M1121.81,1121.81
			c-106.57,106.56-248.26,165.25-398.98,165.25c-150.71,0-292.4-58.69-398.97-165.25c-106.57-106.57-165.25-248.26-165.25-398.97
			c0-150.71,58.68-292.4,165.25-398.98C430.43,217.3,572.12,158.61,722.83,158.61c150.72,0,292.41,58.69,398.98,165.25
			c106.56,106.57,165.25,248.26,165.25,398.98C1287.06,873.55,1228.37,1015.24,1121.81,1121.81z"/>
	</g>
</g>
<g id="Layer_2">
	<g id="_x31_8__x2B_">
		<path d="M544.43,933.01V665.3H440.65v-63.09c14.54,0.4,28.6-0.68,42.16-3.24c13.56-2.55,25.75-7.07,36.56-13.56
			c10.8-6.49,19.95-15.04,27.42-25.66c7.46-10.61,12.38-23.77,14.74-39.51h66.63v412.76H544.43z"/>
		<path d="M710.78,621.11c0-18.47,4.13-34.78,12.38-48.93c8.26-14.16,18.97-25.95,32.14-35.39c13.16-9.43,28.01-16.51,44.52-21.23
			c16.51-4.71,33.21-7.07,50.13-7.07c25.54,0,47.17,3.93,64.86,11.79c17.69,7.87,31.93,17.39,42.75,28.6
			c10.81,11.21,18.58,23.2,23.29,35.97c4.72,12.78,7.08,24.27,7.08,34.49c0,20.44-5.01,38.33-15.03,53.66
			c-10.03,15.33-25.06,26.34-45.11,33.02v1.18c24.76,5.51,43.83,17.21,57.19,35.09c13.36,17.9,20.05,39.81,20.05,65.75
			c0,22.02-4.42,41.08-13.27,57.19c-8.85,16.13-20.55,29.48-35.09,40.1c-14.55,10.61-31.06,18.58-49.54,23.89
			c-18.48,5.3-37.35,7.95-56.61,7.95c-20.04,0-39.42-2.46-58.08-7.37c-18.67-4.91-35.38-12.67-50.12-23.29
			c-14.74-10.61-26.54-23.98-35.38-40.1c-8.85-16.11-13.27-35.38-13.27-57.79c0-26.33,6.79-48.35,20.34-66.04
			c13.57-17.69,32.73-29.48,57.49-35.39v-1.18c-20.04-5.5-35.18-15.92-45.4-31.25C715.89,659.44,710.78,641.56,710.78,621.11z
			 M777.41,804.5c0,10.61,1.96,20.26,5.89,28.9c3.92,8.64,9.14,16.01,15.63,22.11c6.49,6.1,14.25,10.81,23.3,14.15
			c9.03,3.34,18.47,5.01,28.3,5.01c10.22,0,19.55-1.67,28.01-5.01c8.45-3.34,15.93-8.05,22.41-14.15
			c6.49-6.1,11.5-13.47,15.03-22.11c3.54-8.64,5.31-18.08,5.31-28.31c0-9.82-1.87-18.77-5.6-26.83
			c-3.75-8.05-8.85-15.03-15.33-20.93c-6.49-5.9-13.96-10.41-22.4-13.57c-8.46-3.14-17.6-4.72-27.42-4.72
			c-20.44,0-37.74,5.6-51.89,16.81C784.49,767.06,777.41,783.27,777.41,804.5z M786.84,628.79c0,17.69,6.28,31.15,18.88,40.39
			c12.57,9.24,27.31,13.86,44.22,13.86c17.68,0,32.43-4.61,44.22-13.86c11.79-9.24,17.69-22.7,17.69-40.39
			c0-5.51-0.79-11.5-2.36-17.98c-1.57-6.49-4.62-12.68-9.14-18.58c-4.52-5.89-10.82-10.81-18.87-14.74
			c-8.06-3.92-18.58-5.9-31.54-5.9c-8.26,0-16.22,1.28-23.89,3.84c-7.66,2.55-14.44,6.19-20.34,10.91
			c-5.9,4.72-10.52,10.61-13.86,17.68C788.51,611.09,786.84,619.35,786.84,628.79z"/>
	</g>
</g>
</svg>
