<?xml version="1.0" standalone="no"?>
<!DOCTYPE svg PUBLIC "-//W3C//DTD SVG 20010904//EN"
 "http://www.w3.org/TR/2001/REC-SVG-20010904/DTD/svg10.dtd">
<svg version="1.0" xmlns="http://www.w3.org/2000/svg"
 width="750.000000pt" height="750.000000pt" viewBox="0 0 750.000000 750.000000"
 preserveAspectRatio="xMidYMid meet">
<metadata>
Created by potrace 1.11, written by Peter Selinger 2001-2013
</metadata>
<g transform="translate(0.000000,750.000000) scale(0.100000,-0.100000)"
fill="#000000" stroke="none">
<path d="M3495 7304 c-16 -2 -79 -9 -140 -15 -240 -24 -527 -88 -775 -175
-504 -175 -937 -444 -1323 -823 -589 -576 -946 -1308 -1049 -2146 -8 -68 -13
-218 -13 -395 0 -177 5 -327 13 -395 100 -816 437 -1522 1001 -2098 567 -579
1287 -936 2103 -1043 167 -22 549 -30 718 -15 736 64 1386 324 1967 787 131
104 418 392 527 529 393 491 653 1082 746 1694 56 365 52 783 -10 1146 -101
585 -360 1160 -736 1630 -110 138 -397 425 -529 531 -539 430 -1126 680 -1807
770 -116 15 -617 28 -693 18z m-1665 -2784 l0 -200 210 0 210 0 0 -35 0 -35
-210 0 -210 0 0 -592 c0 -367 4 -607 10 -629 17 -61 52 -102 109 -131 46 -24
67 -28 137 -28 45 0 100 6 122 14 l41 15 7 -36 c5 -25 3 -38 -7 -44 -30 -19
-127 -31 -214 -27 -79 3 -98 8 -145 34 -57 32 -106 97 -132 174 -9 25 -13 208
-16 643 l-3 607 -154 0 -155 0 0 35 0 34 153 3 152 3 3 198 2 197 45 0 45 0 0
-200z m4195 -202 l40 -13 3 -152 c2 -145 2 -153 -18 -163 -16 -9 -36 -8 -84 4
-34 9 -87 16 -117 16 -266 -1 -484 -256 -441 -516 45 -270 302 -438 565 -369
70 18 62 18 81 -1 13 -13 16 -42 16 -158 0 -104 -4 -146 -13 -154 -24 -21
-150 -35 -252 -29 -329 19 -608 241 -698 557 -32 113 -41 210 -27 312 48 354
312 625 665 682 53 8 239 -2 280 -16z m-3087 -126 l3 -132 42 62 c51 74 142
147 224 178 80 32 261 39 353 16 112 -29 216 -106 282 -208 l32 -51 15 24 c69
104 156 176 269 221 50 20 75 22 207 23 129 0 158 -3 206 -21 173 -66 289
-209 330 -409 17 -81 19 -141 19 -598 l0 -507 -187 2 -188 3 -5 500 c-5 492
-5 501 -28 556 -27 69 -102 142 -158 158 -162 45 -322 -40 -383 -204 -36 -95
-41 -168 -41 -597 l0 -418 -185 0 -184 0 -3 503 c-4 543 -4 539 -61 624 -44
65 -100 95 -192 101 -134 8 -236 -51 -297 -171 -51 -103 -57 -166 -58 -634 l0
-423 -185 0 -185 0 0 770 0 770 178 -2 177 -3 3 -133z m3010 -504 c8 -8 12
-56 12 -148 0 -92 -4 -140 -12 -148 -17 -17 -279 -17 -296 0 -8 8 -12 56 -12
148 0 92 4 140 12 148 17 17 279 17 296 0z"/>
</g>
</svg>
